<svg width="14" height="15" viewBox="0 0 14 15" fill="none" xmlns="http://www.w3.org/2000/svg">
<path d="M7 2.28125C3.96484 2.28125 1.53125 4.74219 1.53125 7.75C1.53125 10.7852 3.96484 13.2188 7 13.2188C10.0078 13.2188 12.4688 10.7852 12.4688 7.75C12.4688 4.74219 10.0078 2.28125 7 2.28125ZM7 0.96875C10.7188 0.96875 13.7812 4.03125 13.7812 7.75C13.7812 11.4961 10.7188 14.5312 7 14.5312C3.25391 14.5312 0.21875 11.4961 0.21875 7.75C0.21875 4.03125 3.25391 0.96875 7 0.96875ZM7 5.5625C8.20312 5.5625 9.1875 6.54688 9.1875 7.75C9.1875 8.98047 8.20312 9.9375 7 9.9375C5.76953 9.9375 4.8125 8.98047 4.8125 7.75C4.8125 6.54688 5.76953 5.5625 7 5.5625Z" fill="#0D6EFD"/>
</svg>
